<?xml version="1.0" standalone="no"?>
<!DOCTYPE svg PUBLIC "-//W3C//DTD SVG 20010904//EN"
 "http://www.w3.org/TR/2001/REC-SVG-20010904/DTD/svg10.dtd">
<svg version="1.0" xmlns="http://www.w3.org/2000/svg"
 width="293.000000pt" height="251.000000pt" viewBox="0 0 293.000000 251.000000"
 preserveAspectRatio="xMidYMid meet">

<g transform="translate(0.000000,251.000000) scale(0.100000,-0.100000)"
fill="#000000" stroke="none">
<path d="M1446 2305 c-30 -10 -118 -92 -359 -332 -348 -347 -364 -368 -352
-452 6 -45 17 -56 338 -380 185 -185 346 -339 364 -347 42 -18 97 -18 131 0
15 8 176 165 359 348 291 293 332 338 339 371 15 87 8 96 -339 445 -177 178
-333 329 -347 337 -42 22 -92 26 -134 10z m44 -204 c15 -37 41 -60 114 -101
73 -41 91 -77 83 -167 -4 -35 -5 -63 -3 -63 2 0 17 7 32 15 31 16 94 20 94 7
0 -5 -9 -17 -21 -28 -29 -27 -55 -79 -68 -144 -8 -37 -9 -56 -1 -58 5 -2 10
-10 10 -17 0 -7 6 -15 13 -18 17 -6 -89 -116 -130 -133 -18 -8 -48 -28 -68
-45 l-36 -32 106 -107 c58 -59 105 -111 105 -116 0 -5 -4 -15 -9 -23 -21 -32
-63 0 -229 175 -7 8 -16 14 -19 14 -4 0 -46 -42 -95 -94 -95 -101 -121 -118
-146 -92 -14 14 -13 19 13 56 16 23 42 53 59 67 17 14 48 41 69 59 l37 34 -64
60 c-76 72 -142 155 -151 192 -6 21 -2 30 19 43 22 15 26 24 26 68 l0 51 28
-27 c31 -29 51 -34 70 -15 18 18 15 53 -13 118 -34 80 -32 105 9 146 48 48 71
46 72 -6 2 -47 26 -80 60 -80 51 0 55 77 9 140 -28 37 -30 57 -14 113 12 45
23 47 39 8z"/>
<path d="M1460 1695 c0 -8 -13 -28 -30 -45 -72 -74 -40 -161 60 -164 82 -2
125 76 85 154 -26 50 -115 93 -115 55z"/>
<path d="M1200 1552 c0 -15 88 -127 136 -174 27 -25 63 -49 79 -52 21 -5 63
-41 143 -126 63 -66 118 -120 123 -120 29 0 -8 45 -153 184 -90 85 -182 168
-204 185 -23 16 -52 44 -65 63 -30 43 -59 63 -59 40z"/>
<path d="M1670 1485 c-26 -26 -53 -45 -66 -45 -23 0 -42 -15 -89 -70 l-30 -34
35 27 c19 15 53 36 75 46 40 19 133 106 124 116 -3 2 -25 -16 -49 -40z"/>
<path d="M1430 1385 c28 -30 41 -31 63 -7 26 28 21 32 -35 32 l-51 0 23 -25z"/>
<path d="M1334 1198 c-57 -55 -95 -100 -92 -108 3 -10 18 -1 52 30 62 57 150
159 143 166 -3 3 -49 -37 -103 -88z"/>
<path d="M884 556 c-9 -23 4 -36 37 -36 l29 0 0 -185 c0 -178 1 -185 20 -185
19 0 20 7 20 185 l0 185 45 0 c32 0 47 5 52 15 3 9 4 17 2 19 -2 2 -48 6 -102
10 -82 6 -98 5 -103 -8z"/>
<path d="M1364 556 c-10 -26 4 -48 28 -44 17 2 23 10 23 28 0 18 -6 26 -23 28
-13 2 -25 -3 -28 -12z"/>
<path d="M1490 355 c0 -198 1 -205 20 -205 19 0 20 7 20 205 0 198 -1 205 -20
205 -19 0 -20 -7 -20 -205z"/>
<path d="M1884 483 c3 -42 6 -134 6 -205 0 -121 1 -128 20 -128 16 0 20 7 20
33 0 22 10 45 31 71 l32 38 29 -76 c29 -74 39 -85 66 -67 11 7 9 18 -11 57
-60 118 -59 116 -20 174 28 42 32 54 22 61 -27 17 -44 3 -89 -70 l-45 -74 -3
131 -3 132 -31 0 -31 0 7 -77z"/>
<path d="M1690 474 c-61 -21 -100 -78 -100 -148 0 -137 86 -220 179 -171 83
42 95 251 17 300 -25 16 -75 26 -96 19z m53 -45 c12 -6 29 -20 36 -31 18 -29
16 -129 -3 -166 -49 -95 -136 -43 -136 80 0 66 13 102 44 116 28 14 31 14 59
1z"/>
<path d="M1110 300 l0 -160 24 0 c23 0 24 3 28 78 6 120 63 225 108 197 5 -3
10 -30 10 -60 0 -54 15 -80 31 -54 15 23 10 113 -7 137 -25 35 -70 29 -110
-15 l-34 -37 0 37 c0 33 -3 37 -25 37 l-25 0 0 -160z"/>
<path d="M1365 441 c-3 -5 -2 -73 1 -150 6 -128 9 -141 26 -141 17 0 18 11 18
150 0 142 -1 150 -19 150 -11 0 -22 -4 -26 -9z"/>
</g>
</svg>
